<mxfile host="app.diagrams.net" modified="2024-03-04T18:12:28.338Z" agent="Mozilla/5.0 (Windows NT 10.0; Win64; x64) AppleWebKit/537.36 (KHTML, like Gecko) Chrome/122.0.0.0 Safari/537.36" version="24.0.1" etag="bwk4eN6eu4CEt02Efn9r" type="github">
  <diagram name="Страница — 1" id="FdRHniF3d3dQyyEgROCc">
    <mxGraphModel>
      <root>
        <mxCell id="0" />
        <mxCell id="1" parent="0" />
      </root>
    </mxGraphModel>
  </diagram>
</mxfile>
